# xmcd
#
# Track frame offsets: 
#        150
#        24291
#        46565
#        64319
#        85765
#        110603
#        127124
#        144083
#        169151
#        186960
#        198347
#        224738
#
# Disc length: 3130 seconds
#
# Revision: 0
# Processed by: cddbd v1.5.2PL0 Copyright (c) Steve Scherf et al.
# Submitted via: ExactAudioCopy v1.3
#
DISCID=a90c380c
DTITLE=Jeff Strahan - Wayward Son
DYEAR=2011
DGENRE=Texas Blues, Americana
TTITLE0=Early Grave
TTITLE1=Kiss Her Goodnight
TTITLE2=Ambassador
TTITLE3=Miss Lilly
TTITLE4=Things Money Can't Buy
TTITLE5=Two Strikes
TTITLE6=Killer
TTITLE7=Crying To Be Kissed
TTITLE8=Soy Tu Hombre
TTITLE9=New Mexican
TTITLE10=Daughters Lullaby
TTITLE11=War
EXTD=
EXTT0=
EXTT1=
EXTT2=
EXTT3=
EXTT4=
EXTT5=
EXTT6=
EXTT7=
EXTT8=
EXTT9=
EXTT10=
EXTT11=
PLAYORDER=
